<svg width="20" height="15" viewBox="0 0 20 15" fill="none" xmlns="http://www.w3.org/2000/svg">
<path d="M19.5825 2.31617C19.4665 1.87044 19.2454 1.46433 18.9405 1.13711C18.6356 0.809888 18.2572 0.572611 17.8418 0.448214C16.2829 1.28448e-05 10.0089 1.26906e-05 10.0089 1.26906e-05C10.0089 1.26906e-05 3.75074 -0.00893328 2.17599 0.448214C1.76064 0.572611 1.38221 0.809888 1.07729 1.13711C0.772366 1.46433 0.55126 1.87044 0.435342 2.31617C0.139832 4.02891 -0.00585506 5.76755 0.000180061 7.5094C-0.00471415 9.24467 0.140969 10.9767 0.435342 12.683C0.55126 13.1287 0.772366 13.5348 1.07729 13.862C1.38221 14.1892 1.76064 14.4265 2.17599 14.5509C3.73323 15 10.0089 15 10.0089 15C10.0089 15 16.2662 15 17.8418 14.5509C18.2572 14.4265 18.6356 14.1892 18.9405 13.862C19.2454 13.5348 19.4665 13.1287 19.5825 12.683C19.8707 10.976 20.0102 9.24406 19.9993 7.5094C20.0114 5.76817 19.8718 4.02954 19.5825 2.31617ZM8.00649 10.722V4.287L13.2284 7.5094L8.00649 10.722Z" fill="white"/>
</svg>
