<svg width="20" height="20" viewBox="0 0 20 20" fill="none" xmlns="http://www.w3.org/2000/svg">
<path d="M6.44379 12.9302H6.4447C6.44546 12.9302 6.44623 12.9301 6.44699 12.9301H17.0703C17.3318 12.9301 17.5618 12.7566 17.6337 12.5051L19.9774 4.30197C20.0279 4.12512 19.9925 3.935 19.8819 3.78821C19.7711 3.64142 19.5979 3.55505 19.4141 3.55505H5.09247L4.67361 1.67014C4.61395 1.40204 4.37622 1.2113 4.10156 1.2113H0.585937C0.262299 1.2113 0 1.4736 0 1.79724C0 2.12088 0.262299 2.38318 0.585937 2.38318H3.63159C3.70575 2.71719 5.63599 11.4034 5.74707 11.9031C5.12436 12.1738 4.6875 12.7947 4.6875 13.516C4.6875 14.4852 5.47607 15.2738 6.44531 15.2738H17.0703C17.3939 15.2738 17.6562 15.0115 17.6562 14.6879C17.6562 14.3642 17.3939 14.1019 17.0703 14.1019H6.44531C6.12228 14.1019 5.85937 13.839 5.85937 13.516C5.85937 13.1934 6.12137 12.931 6.44379 12.9302ZM18.6372 4.72693L16.6283 11.7582H6.91528L5.35278 4.72693H18.6372Z" fill="#1A1A1A"/>
<path d="M5.85938 17.0316C5.85938 18.001 6.64795 18.7897 7.61719 18.7897C8.58643 18.7897 9.375 18.001 9.375 17.0316C9.375 16.0621 8.58643 15.2734 7.61719 15.2734C6.64795 15.2734 5.85938 16.0621 5.85938 17.0316ZM7.61719 16.4455C7.94022 16.4455 8.20312 16.7085 8.20312 17.0316C8.20312 17.3547 7.94022 17.6176 7.61719 17.6176C7.29416 17.6176 7.03125 17.3547 7.03125 17.0316C7.03125 16.7085 7.29416 16.4455 7.61719 16.4455Z" fill="#1A1A1A"/>
<path d="M14.1406 17.0316C14.1406 18.001 14.9292 18.7897 15.8984 18.7897C16.8677 18.7897 17.6562 18.001 17.6562 17.0316C17.6562 16.0621 16.8677 15.2734 15.8984 15.2734C14.9292 15.2734 14.1406 16.0621 14.1406 17.0316ZM15.8984 16.4455C16.2215 16.4455 16.4844 16.7085 16.4844 17.0316C16.4844 17.3547 16.2215 17.6176 15.8984 17.6176C15.5754 17.6176 15.3125 17.3547 15.3125 17.0316C15.3125 16.7085 15.5754 16.4455 15.8984 16.4455Z" fill="#1A1A1A"/>
</svg>
